# xmcd
#
# Track frame offsets:
#	150
#	16549
#	30871
#	59249
#	94379
#	118716
#	138562
#	157454
#	178897
#	202297
#	213960
#
# Disc length: 3239 seconds
#
# Revision: 0
# Processed by: cddbd v1.5.2PL0 Copyright (c) Steve Scherf et al.
# Submitted via: EasyCDDAExtractor 9.0.0.1
#
DISCID=a70ca50b
DTITLE=Dio - Long Beach Arena Long Beach 25-08-03 Master
DYEAR=2003
DGENRE=Hard Rock
TTITLE0=Killing The Dragon
TTITLE1=Last In Line
TTITLE2=Stargazer
TTITLE3=Stand Up And Shout - Drum Solo
TTITLE4=Rock And Roll
TTITLE5=The Mob Rules
TTITLE6=Dream Evil
TTITLE7=Craig Goldie Guitar Solo
TTITLE8=Rainbow In The Dark
TTITLE9=Holy Diver
TTITLE10=Heaven And Hell
EXTD=
EXTT0=
EXTT1=
EXTT2=
EXTT3=
EXTT4=
EXTT5=
EXTT6=
EXTT7=
EXTT8=
EXTT9=
EXTT10=
PLAYORDER=
